<svg width="200" height="200" viewBox="0 0 200 200" fill="none" xmlns="http://www.w3.org/2000/svg">
<g clip-path="url(#clip0_134_25)">
<path d="M100 0C44.8156 0 0 44.8156 0 100C0 155.184 44.8156 200 100 200C155.184 200 200 155.184 200 100C200 44.8156 155.184 0 100 0ZM100 7.40741C106.102 7.40741 112.064 8.00222 117.834 9.12593C79.6319 19.3237 50.54 42.1363 26.7319 67.9948C23.2407 65.6837 19.7756 63.1163 16.343 60.24C31.2052 28.9867 63.0556 7.40741 100 7.40741ZM132.821 13.3881C141.595 16.7096 149.731 21.3207 156.996 26.9978C123.993 35.8867 91.6956 56.7207 63.9081 85.0185C53.483 81.6541 43.2126 77.7148 33.1585 71.9556C58.9111 44.24 90.2919 20.8985 132.821 13.3881ZM163.859 32.9207C169.099 37.9111 173.752 43.5111 177.71 49.6059C145.59 59.0237 119.883 75.0585 99.0015 95.7622C89.8844 92.6963 80.8363 90.1822 71.8919 87.5C99.7474 59.9363 131.892 40.2956 163.859 32.9207ZM181.607 56.1881C188.616 69.2281 192.593 84.1437 192.593 100C192.593 122.886 184.309 143.816 170.577 159.965C179.882 123.504 171.28 94.0674 164.687 61.823C170.109 59.7318 175.741 57.8467 181.607 56.1881ZM157.71 64.6763C165.124 100.596 174.122 130.652 159.395 171.059C151.81 177.404 143.194 182.559 133.829 186.23C142.862 153.551 142.69 116.576 132.191 78.3733C140.109 73.2215 148.59 68.6348 157.71 64.6763ZM13.3274 67.3437C40.5156 89.3044 69.263 93.6296 96.4193 102.711C96.9007 112.468 97.3348 122.162 97.3348 131.724C59.1911 121.754 31.2296 108.38 8.75556 84.18C9.75556 78.363 11.2985 72.7341 13.3274 67.3437ZM125.712 82.8022C135.736 120.888 135.099 157.371 125.258 189.113C117.23 191.38 108.758 192.593 100 192.593C98.2852 192.593 96.5822 192.543 94.8904 192.451C106.692 163.189 105.301 132.046 103.778 101.46C110.556 94.6933 117.841 88.4533 125.712 82.8022ZM7.62889 93.6585C30.903 116.691 59.8096 129.737 97.2267 139.347C96.9452 149.676 96.0378 159.836 93.983 169.747C69.0711 164.756 37.9118 156.416 10.4267 123.55C8.45926 116.032 7.40741 108.14 7.40741 100C7.40741 97.8681 7.48741 95.7548 7.62889 93.6585ZM17.1341 141.376C42.7793 165.194 70.5296 172.57 92.2689 176.956C90.923 181.945 89.2518 186.867 87.1852 191.708C56.4104 187.457 30.4956 168.115 17.1341 141.376Z" fill="#0B1B3F"/>
<path d="M17.1341 141.376C42.7793 165.194 70.5296 172.57 92.2689 176.956C90.923 181.945 89.2518 186.867 87.1852 191.708C56.4104 187.457 30.4956 168.115 17.1341 141.376Z" fill="#E7D24B"/>
<path d="M157.71 64.6763C165.124 100.596 174.122 130.652 159.395 171.059C151.81 177.404 143.194 182.559 133.829 186.23C142.862 153.551 142.69 116.576 132.191 78.3733C140.109 73.2215 148.59 68.6348 157.71 64.6763Z" fill="#E7D24B"/>
<path d="M13.3274 67.3437C40.5156 89.3044 69.263 93.6296 96.4193 102.711C96.9007 112.468 97.3348 122.162 97.3348 131.724C59.1911 121.754 31.2296 108.38 8.75556 84.18C9.75556 78.363 11.2985 72.7341 13.3274 67.3437Z" fill="white"/>
<path d="M132.821 13.3881C141.595 16.7096 149.731 21.3207 156.996 26.9978C123.993 35.8867 91.6956 56.7207 63.9081 85.0185C53.483 81.6541 43.2126 77.7148 33.1585 71.9556C58.9111 44.24 90.2919 20.8985 132.821 13.3881Z" fill="white"/>
<path d="M181.607 56.1881C188.616 69.2281 192.593 84.1437 192.593 100C192.593 122.886 184.309 143.816 170.577 159.965C179.882 123.504 171.28 94.0674 164.687 61.823C170.109 59.7318 175.741 57.8467 181.607 56.1881Z" fill="white"/>
<path d="M100 7.40741C106.102 7.40741 112.064 8.00222 117.834 9.12593C79.6319 19.3237 50.54 42.1363 26.7319 67.9948C23.2407 65.6837 19.7756 63.1163 16.343 60.24C31.2052 28.9867 63.0556 7.40741 100 7.40741Z" fill="#E7D24B"/>
<path d="M163.859 32.9207C169.099 37.9111 173.752 43.5111 177.71 49.6059C145.59 59.0237 119.883 75.0585 99.0015 95.7622C89.8844 92.6963 80.8363 90.1822 71.8919 87.5C99.7474 59.9363 131.892 40.2956 163.859 32.9207Z" fill="#363E70"/>
<path d="M125.712 82.8022C135.736 120.888 135.099 157.371 125.258 189.113C117.23 191.38 108.758 192.593 100 192.593C98.2852 192.593 96.5822 192.543 94.8904 192.451C106.692 163.189 105.301 132.046 103.778 101.46C110.556 94.6933 117.841 88.4533 125.712 82.8022Z" fill="#363E70"/>
<path d="M7.62889 93.6585C30.903 116.691 59.8096 129.737 97.2267 139.347C96.9452 149.676 96.0378 159.836 93.983 169.747C69.0711 164.756 37.9118 156.416 10.4267 123.55C8.45926 116.032 7.40741 108.14 7.40741 100C7.40741 97.8681 7.48741 95.7548 7.62889 93.6585Z" fill="#363E70"/>
<path d="M100 0C44.8156 0 0 44.8156 0 100C0 155.184 44.8156 200 100 200C155.184 200 200 155.184 200 100C200 44.8156 155.184 0 100 0ZM100 7.40741C106.102 7.40741 112.064 8.00222 117.834 9.12593C79.6319 19.3237 50.54 42.1363 26.7319 67.9948C23.2407 65.6837 19.7756 63.1163 16.343 60.24C31.2052 28.9867 63.0556 7.40741 100 7.40741ZM132.821 13.3881C141.595 16.7096 149.731 21.3207 156.996 26.9978C123.993 35.8867 91.6956 56.7207 63.9081 85.0185C53.483 81.6541 43.2126 77.7148 33.1585 71.9556C58.9111 44.24 90.2919 20.8985 132.821 13.3881ZM163.859 32.9207C169.099 37.9111 173.752 43.5111 177.71 49.6059C145.59 59.0237 119.883 75.0585 99.0015 95.7622C89.8844 92.6963 80.8363 90.1822 71.8919 87.5C99.7474 59.9363 131.892 40.2956 163.859 32.9207ZM181.607 56.1881C188.616 69.2281 192.593 84.1437 192.593 100C192.593 122.886 184.309 143.816 170.577 159.965C179.882 123.504 171.28 94.0674 164.687 61.823C170.109 59.7318 175.741 57.8467 181.607 56.1881ZM157.71 64.6763C165.124 100.596 174.122 130.652 159.395 171.059C151.81 177.404 143.194 182.559 133.829 186.23C142.862 153.551 142.69 116.576 132.191 78.3733C140.109 73.2215 148.59 68.6348 157.71 64.6763ZM13.3274 67.3437C40.5156 89.3044 69.263 93.6296 96.4193 102.711C96.9007 112.468 97.3348 122.162 97.3348 131.724C59.1911 121.754 31.2296 108.38 8.75556 84.18C9.75556 78.363 11.2985 72.7341 13.3274 67.3437ZM125.712 82.8022C135.736 120.888 135.099 157.371 125.258 189.113C117.23 191.38 108.758 192.593 100 192.593C98.2852 192.593 96.5822 192.543 94.8904 192.451C106.692 163.189 105.301 132.046 103.778 101.46C110.556 94.6933 117.841 88.4533 125.712 82.8022ZM7.62889 93.6585C30.903 116.691 59.8096 129.737 97.2267 139.347C96.9452 149.676 96.0378 159.836 93.983 169.747C69.0711 164.756 37.9118 156.416 10.4267 123.55C8.45926 116.032 7.40741 108.14 7.40741 100C7.40741 97.8681 7.48741 95.7548 7.62889 93.6585ZM17.1341 141.376C42.7793 165.194 70.5296 172.57 92.2689 176.956C90.923 181.945 89.2518 186.867 87.1852 191.708C56.4104 187.457 30.4956 168.115 17.1341 141.376Z" stroke="#363E70" stroke-width="0.008"/>
<path d="M17.1341 141.376C42.7793 165.194 70.5296 172.57 92.2689 176.956C90.923 181.945 89.2518 186.867 87.1852 191.708C56.4104 187.457 30.4956 168.115 17.1341 141.376Z" stroke="#363E70" stroke-width="0.008"/>
<path d="M157.71 64.6763C165.124 100.596 174.122 130.652 159.395 171.059C151.81 177.404 143.194 182.559 133.829 186.23C142.862 153.551 142.69 116.576 132.191 78.3733C140.109 73.2215 148.59 68.6348 157.71 64.6763Z" stroke="#363E70" stroke-width="0.008"/>
<path d="M13.3274 67.3437C40.5156 89.3044 69.263 93.6296 96.4193 102.711C96.9007 112.468 97.3348 122.162 97.3348 131.724C59.1911 121.754 31.2296 108.38 8.75556 84.18C9.75556 78.363 11.2985 72.7341 13.3274 67.3437Z" stroke="#363E70" stroke-width="0.008"/>
<path d="M132.821 13.3881C141.595 16.7096 149.731 21.3207 156.996 26.9978C123.993 35.8867 91.6956 56.7207 63.9081 85.0185C53.483 81.6541 43.2126 77.7148 33.1585 71.9556C58.9111 44.24 90.2919 20.8985 132.821 13.3881Z" stroke="#363E70" stroke-width="0.008"/>
<path d="M181.607 56.1881C188.616 69.2281 192.593 84.1437 192.593 100C192.593 122.886 184.309 143.816 170.577 159.965C179.882 123.504 171.28 94.0674 164.687 61.823C170.109 59.7318 175.741 57.8467 181.607 56.1881Z" stroke="#363E70" stroke-width="0.008"/>
<path d="M100 7.40741C106.102 7.40741 112.064 8.00222 117.834 9.12593C79.6319 19.3237 50.54 42.1363 26.7319 67.9948C23.2407 65.6837 19.7756 63.1163 16.343 60.24C31.2052 28.9867 63.0556 7.40741 100 7.40741Z" stroke="#363E70" stroke-width="0.008"/>
<path d="M163.859 32.9207C169.099 37.9111 173.752 43.5111 177.71 49.6059C145.59 59.0237 119.883 75.0585 99.0015 95.7622C89.8844 92.6963 80.8363 90.1822 71.8919 87.5C99.7474 59.9363 131.892 40.2956 163.859 32.9207Z" stroke="#363E70" stroke-width="0.008"/>
<path d="M125.712 82.8022C135.736 120.888 135.099 157.371 125.258 189.113C117.23 191.38 108.758 192.593 100 192.593C98.2852 192.593 96.5822 192.543 94.8904 192.451C106.692 163.189 105.301 132.046 103.778 101.46C110.556 94.6933 117.841 88.4533 125.712 82.8022Z" stroke="#363E70" stroke-width="0.008"/>
<path d="M7.62889 93.6585C30.903 116.691 59.8096 129.737 97.2267 139.347C96.9452 149.676 96.0378 159.836 93.983 169.747C69.0711 164.756 37.9118 156.416 10.4267 123.55C8.45926 116.032 7.40741 108.14 7.40741 100C7.40741 97.8681 7.48741 95.7548 7.62889 93.6585Z" stroke="#363E70" stroke-width="0.008"/>
</g>
<defs>
<clipPath id="clip0_134_25">
<rect width="200" height="200" fill="white"/>
</clipPath>
</defs>
</svg>
