<svg width="129" height="129" viewBox="0 0 129 129" fill="none" xmlns="http://www.w3.org/2000/svg">
<path fill-rule="evenodd" clip-rule="evenodd" d="M40.3125 5.375C43.281 5.375 45.6875 7.78147 45.6875 10.75V16.125H83.3125V10.75C83.3125 7.78147 85.719 5.375 88.6875 5.375C91.656 5.375 94.0625 7.78147 94.0625 10.75V16.2577C107.643 17.6061 118.25 29.0644 118.25 43V91.375C118.25 106.218 106.218 118.25 91.375 118.25H37.625C22.7823 118.25 10.75 106.218 10.75 91.375V43C10.75 29.0644 21.3567 17.6061 34.9375 16.2577V10.75C34.9375 7.78147 37.344 5.375 40.3125 5.375ZM22.4175 37.625H106.582C104.369 31.3621 98.3959 26.875 91.375 26.875H37.625C30.6041 26.875 24.6312 31.3621 22.4175 37.625ZM107.5 48.375H21.5V91.375C21.5 100.281 28.7194 107.5 37.625 107.5H91.375C100.281 107.5 107.5 100.281 107.5 91.375V48.375ZM32.25 61.8125C32.25 58.844 34.6565 56.4375 37.625 56.4375H91.375C94.3435 56.4375 96.75 58.844 96.75 61.8125C96.75 64.781 94.3435 67.1875 91.375 67.1875H37.625C34.6565 67.1875 32.25 64.781 32.25 61.8125ZM32.25 77.9375C32.25 74.969 34.6565 72.5625 37.625 72.5625H91.375C94.3435 72.5625 96.75 74.969 96.75 77.9375C96.75 80.906 94.3435 83.3125 91.375 83.3125H37.625C34.6565 83.3125 32.25 80.906 32.25 77.9375ZM32.25 94.0625C32.25 91.094 34.6565 88.6875 37.625 88.6875H91.375C94.3435 88.6875 96.75 91.094 96.75 94.0625C96.75 97.031 94.3435 99.4375 91.375 99.4375H37.625C34.6565 99.4375 32.25 97.031 32.25 94.0625Z" fill="#5A61C9"/>
</svg>
