<svg width="118" height="118" viewBox="0 0 118 118" fill="none" xmlns="http://www.w3.org/2000/svg">
<path d="M90.9583 115.542H7.37501C6.07103 115.542 4.82046 115.024 3.8984 114.102C2.97635 113.18 2.45834 111.929 2.45834 110.625V7.37498C2.45834 6.071 2.97635 4.82043 3.8984 3.89837C4.82046 2.97632 6.07103 2.45831 7.37501 2.45831H72.7323C74.0361 2.45859 75.2865 2.97678 76.2083 3.8989L94.4344 22.125C95.3565 23.0468 95.8747 24.2972 95.875 25.6011V110.625C95.875 111.929 95.357 113.18 94.435 114.102C93.5129 115.024 92.2623 115.542 90.9583 115.542Z" fill="currentColor"/>
<path d="M84.4044 12.0802L76.2083 3.8743C75.2801 2.95878 74.0262 2.44944 72.7224 2.4583H7.37501C6.07103 2.4583 4.82046 2.97631 3.8984 3.89836C2.97635 4.82042 2.45834 6.07099 2.45834 7.37497V94.0411L84.4044 12.0802Z" fill="currenColor"/>
<path d="M49.1667 115.542H7.37501C6.07103 115.542 4.82046 115.024 3.8984 114.102C2.97635 113.18 2.45834 111.929 2.45834 110.625V7.37498C2.45834 6.071 2.97635 4.82043 3.8984 3.89837C4.82046 2.97632 6.07103 2.45831 7.37501 2.45831H72.7323C74.0361 2.45859 75.2865 2.97678 76.2083 3.8989L94.4344 22.125C95.3565 23.0468 95.8747 24.2972 95.875 25.6011V44.6876" stroke="#00303E" stroke-linecap="round" stroke-linejoin="round"/>
<path d="M14.75 71.2917H44.25" stroke="#00303E" stroke-linecap="round" stroke-linejoin="round"/>
<path d="M22.125 46.7083H27.0417C27.6937 46.7083 28.319 46.9673 28.78 47.4283C29.241 47.8894 29.5 48.5147 29.5 49.1666V71.2916H19.6667V49.1666C19.6667 48.5147 19.9257 47.8894 20.3867 47.4283C20.8477 46.9673 21.473 46.7083 22.125 46.7083Z" fill="currentColor" stroke="#00303E" stroke-linecap="round" stroke-linejoin="round"/>
<path d="M49.1666 71.2916V34.4166C49.1666 33.7647 48.9076 33.1394 48.4466 32.6783C47.9856 32.2173 47.3603 31.9583 46.7083 31.9583H41.7916C41.1397 31.9583 40.5144 32.2173 40.0533 32.6783C39.5923 33.1394 39.3333 33.7647 39.3333 34.4166V71.2916H49.1666Z" fill="currentColor" stroke="#00303E" stroke-linecap="round" stroke-linejoin="round"/>
<path d="M89.5178 58.6116L97.0845 76.1641H111.805C112.549 76.1349 113.284 76.3362 113.909 76.7403C114.534 77.1445 115.019 77.7319 115.298 78.4222C115.576 79.1124 115.635 79.872 115.466 80.5969C115.296 81.3218 114.907 81.9767 114.352 82.4722L101.569 93.8592L108.658 110.133C108.969 110.878 109.038 111.702 108.856 112.489C108.675 113.275 108.251 113.985 107.644 114.518C107.038 115.051 106.28 115.38 105.477 115.46C104.674 115.539 103.866 115.365 103.166 114.962L86.0859 105.32L68.9759 114.962C68.2765 115.365 67.468 115.54 66.6641 115.461C65.8603 115.382 65.1015 115.052 64.4944 114.52C63.8873 113.987 63.4624 113.277 63.2794 112.49C63.0964 111.704 63.1645 110.879 63.4742 110.133L70.5394 93.8493L57.7561 82.4624C57.1992 81.9692 56.8083 81.316 56.6369 80.5921C56.4655 79.8682 56.522 79.109 56.7986 78.4185C57.0753 77.728 57.5586 77.1398 58.1823 76.7345C58.8061 76.3292 59.5399 76.1265 60.2833 76.1543H75.0333L82.6099 58.6018C82.9465 57.9761 83.4463 57.4533 84.0561 57.0889C84.666 56.7245 85.3632 56.5321 86.0737 56.5321C86.7841 56.5321 87.4813 56.7245 88.0912 57.0889C88.701 57.4533 89.2008 57.9761 89.5374 58.6018L89.5178 58.6116Z" fill="currentColor"/>
<path d="M97.0845 76.1641L89.5177 58.6116C89.1811 57.986 88.6813 57.4632 88.0714 57.0988C87.4616 56.7344 86.7644 56.5419 86.0539 56.5419C85.3435 56.5419 84.6463 56.7344 84.0364 57.0988C83.4266 57.4632 82.9268 57.986 82.5901 58.6116L75.0136 76.1641H60.2636C59.5202 76.1363 58.7864 76.339 58.1626 76.7443C57.5388 77.1496 57.0556 77.7378 56.7789 78.4283C56.5023 79.1189 56.4458 79.878 56.6172 80.6019C56.7886 81.3258 57.1795 81.979 57.7364 82.4722L70.5197 93.8592L63.4741 110.133C63.124 111.004 63.1065 111.974 63.425 112.857L100.133 76.1493L97.0845 76.1641Z" fill="currentColor"/>
<path d="M89.5178 58.6116L97.0845 76.1641H111.805C112.549 76.1349 113.284 76.3362 113.909 76.7403C114.534 77.1445 115.019 77.7319 115.298 78.4222C115.576 79.1124 115.635 79.872 115.466 80.5969C115.296 81.3218 114.907 81.9767 114.352 82.4722L101.569 93.8592L108.658 110.133C108.969 110.878 109.038 111.702 108.856 112.489C108.675 113.275 108.251 113.985 107.644 114.518C107.038 115.051 106.28 115.38 105.477 115.46C104.674 115.539 103.866 115.365 103.166 114.962L86.0859 105.32L68.9759 114.962C68.2765 115.365 67.468 115.54 66.6641 115.461C65.8603 115.382 65.1015 115.052 64.4944 114.52C63.8873 113.987 63.4624 113.277 63.2794 112.49C63.0964 111.704 63.1645 110.879 63.4742 110.133L70.5394 93.8494L57.7561 82.4624C57.1992 81.9692 56.8083 81.316 56.6369 80.5921C56.4655 79.8682 56.522 79.109 56.7986 78.4185C57.0753 77.728 57.5586 77.1398 58.1823 76.7345C58.8061 76.3292 59.5399 76.1265 60.2833 76.1543H75.0333L82.6099 58.6018C82.9465 57.9761 83.4463 57.4533 84.0561 57.0889C84.666 56.7245 85.3632 56.5321 86.0737 56.5321C86.7841 56.5321 87.4813 56.7245 88.0912 57.0889C88.701 57.4533 89.2008 57.9761 89.5374 58.6018L89.5178 58.6116Z" stroke="#00303E" stroke-linecap="round" stroke-linejoin="round"/>
</svg>
